<svg width="32" height="32" viewBox="0 0 32 32" fill="none" xmlns="http://www.w3.org/2000/svg">
<circle cx="16" cy="16" r="16" fill="url(#paint0_linear_6332_28549)" fill-opacity="0.1"/>
<path d="M24.3344 25.25H7.66596C7.82819 21.7582 11.3726 18.75 16.0002 18.75C20.6277 18.75 24.1721 21.7582 24.3344 25.25Z" fill="url(#paint1_linear_6332_28549)" stroke="url(#paint2_linear_6332_28549)" stroke-width="1.5"/>
<path d="M20.1221 9.97849L20.1221 9.97849L20.123 9.98199C20.4712 11.3751 20.0977 12.9123 19.0002 14.0098L18.9974 14.0127C18.227 14.7915 17.2491 15.1883 16.2391 15.2307L16.2249 15.2313L16.2108 15.2325C15.8086 15.2646 15.3926 15.2172 14.9861 15.1134L14.9774 15.1112L14.9686 15.1091C14.2354 14.9406 13.5517 14.5701 12.9923 14.0111C12.1805 13.1901 11.759 12.1277 11.7506 11.0741L11.7505 11.0687C11.7335 9.94542 12.1585 8.8343 12.9982 8.0031L12.9984 8.00295C13.8974 7.11252 15.0778 6.69279 16.2211 6.76845L16.221 6.76854L16.2331 6.76915C17.2514 6.82006 18.2419 7.23448 19.0054 7.9956C19.2386 8.23813 19.4499 8.51068 19.6057 8.77299L19.6116 8.78296L19.6178 8.79274C19.8523 9.16114 20.0208 9.56494 20.1221 9.97849ZM13.483 10.8931L13.4908 10.901L13.4987 10.9088L13.5914 10.9986L13.4702 11.1198C12.8121 11.7779 12.8226 12.8428 13.4802 13.5004C14.1331 14.1533 15.208 14.1533 15.8609 13.5004L15.9906 13.3707L16.1502 13.5304C16.8031 14.1833 17.878 14.1833 18.5309 13.5304C19.1831 12.8782 19.1838 11.805 18.5331 11.1519L18.3674 10.9839L18.5009 10.8504C19.1538 10.1975 19.1538 9.12265 18.5009 8.46975L18.501 8.4697L18.4936 8.46254C17.8365 7.82321 16.7771 7.81292 16.1202 8.46975L15.9891 8.60094L15.8993 8.50824L15.8881 8.49668L15.8764 8.48562C15.211 7.85529 14.1625 7.84555 13.4976 8.49254L13.4866 8.50319L13.4761 8.51428C12.8458 9.17963 12.836 10.2281 13.483 10.8931Z" fill="url(#paint3_linear_6332_28549)" stroke="url(#paint4_linear_6332_28549)" stroke-width="1.5"/>
<defs>
<linearGradient id="paint0_linear_6332_28549" x1="12.9231" y1="3.42857" x2="10.5543" y2="28.0877" gradientUnits="userSpaceOnUse">
<stop stop-color="#1288FC"/>
<stop offset="1" stop-color="#0B5297"/>
</linearGradient>
<linearGradient id="paint1_linear_6332_28549" x1="14.2521" y1="18.8571" x2="13.9896" y2="25.0677" gradientUnits="userSpaceOnUse">
<stop stop-color="#1288FC"/>
<stop offset="1" stop-color="#0B5297"/>
</linearGradient>
<linearGradient id="paint2_linear_6332_28549" x1="14.2521" y1="18.8571" x2="13.9896" y2="25.0677" gradientUnits="userSpaceOnUse">
<stop stop-color="#1288FC"/>
<stop offset="1" stop-color="#0B5297"/>
</linearGradient>
<linearGradient id="paint3_linear_6332_28549" x1="15.038" y1="7.07934" x2="14.3002" y2="14.7722" gradientUnits="userSpaceOnUse">
<stop stop-color="#1288FC"/>
<stop offset="1" stop-color="#0B5297"/>
</linearGradient>
<linearGradient id="paint4_linear_6332_28549" x1="15.038" y1="7.07934" x2="14.3002" y2="14.7722" gradientUnits="userSpaceOnUse">
<stop stop-color="#1288FC"/>
<stop offset="1" stop-color="#0B5297"/>
</linearGradient>
</defs>
</svg>
