<svg width="32" height="33" viewBox="0 0 32 33" fill="none" xmlns="http://www.w3.org/2000/svg">
<path d="M4.22656 10.4199L15.9999 17.2332L27.6932 10.4599" stroke="#ECECEC" stroke-width="1.5" stroke-linecap="round" stroke-linejoin="round"/>
<path d="M16 29.3131V17.2197" stroke="#ECECEC" stroke-width="1.5" stroke-linecap="round" stroke-linejoin="round"/>
<path d="M28.8132 12.7265V20.2732C28.8132 20.3399 28.8132 20.3932 28.7998 20.4598C27.8665 19.6465 26.6665 19.1665 25.3332 19.1665C24.0798 19.1665 22.9198 19.6065 21.9998 20.3399C20.7732 21.3132 19.9998 22.8199 19.9998 24.4999C19.9998 25.4999 20.2798 26.4465 20.7732 27.2465C20.8932 27.4599 21.0398 27.6599 21.1998 27.8465L18.7598 29.1932C17.2398 30.0466 14.7598 30.0466 13.2398 29.1932L6.11983 25.2465C4.5065 24.3532 3.18652 22.1132 3.18652 20.2732V12.7265C3.18652 10.8865 4.5065 8.64653 6.11983 7.7532L13.2398 3.8065C14.7598 2.95317 17.2398 2.95317 18.7598 3.8065L25.8798 7.7532C27.4932 8.64653 28.8132 10.8865 28.8132 12.7265Z" stroke="#ECECEC" stroke-width="1.5" stroke-linecap="round" stroke-linejoin="round"/>
<path d="M30.6667 24.4998C30.6667 25.4998 30.3867 26.4465 29.8934 27.2465C29.6134 27.7265 29.2533 28.1532 28.84 28.4998C27.9067 29.3398 26.68 29.8332 25.3333 29.8332C23.3867 29.8332 21.6933 28.7932 20.7733 27.2465C20.28 26.4465 20 25.4998 20 24.4998C20 22.8198 20.7733 21.3132 22 20.3398C22.92 19.6065 24.08 19.1665 25.3333 19.1665C28.28 19.1665 30.6667 21.5532 30.6667 24.4998Z" stroke="#ECECEC" stroke-width="1.5" stroke-miterlimit="10" stroke-linecap="round" stroke-linejoin="round"/>
<path d="M26.7593 25.8866L23.9326 23.0732" stroke="#ECECEC" stroke-width="1.5" stroke-miterlimit="10" stroke-linecap="round" stroke-linejoin="round"/>
<path d="M26.7329 23.1133L23.9062 25.9266" stroke="#292D32" stroke-width="1.5" stroke-miterlimit="10" stroke-linecap="round" stroke-linejoin="round"/>
</svg>
