<svg width="40" height="41" viewBox="0 0 40 41" fill="none" xmlns="http://www.w3.org/2000/svg">
<path d="M20.0007 37.1666C29.2054 37.1666 36.6673 29.7047 36.6673 20.4999C36.6673 11.2952 29.2054 3.83325 20.0007 3.83325C10.7959 3.83325 3.33398 11.2952 3.33398 20.4999C3.33398 29.7047 10.7959 37.1666 20.0007 37.1666Z" stroke="#ECECEC" stroke-width="1.5" stroke-linecap="round" stroke-linejoin="round"/>
<path d="M13.3333 5.5H15C11.75 15.2333 11.75 25.7667 15 35.5H13.3333" stroke="#ECECEC" stroke-width="1.5" stroke-linecap="round" stroke-linejoin="round"/>
<path d="M25 5.5C28.25 15.2333 28.25 25.7667 25 35.5" stroke="#ECECEC" stroke-width="1.5" stroke-linecap="round" stroke-linejoin="round"/>
<path d="M5 27.1667V25.5C14.7333 28.75 25.2667 28.75 35 25.5V27.1667" stroke="#ECECEC" stroke-width="1.5" stroke-linecap="round" stroke-linejoin="round"/>
<path d="M5 15.5C14.7333 12.25 25.2667 12.25 35 15.5" stroke="#ECECEC" stroke-width="1.5" stroke-linecap="round" stroke-linejoin="round"/>
</svg>
