<svg width="56" height="56" viewBox="0 0 56 56" fill="none" xmlns="http://www.w3.org/2000/svg">
<circle cx="28" cy="28" r="27.5" fill="#303030" fill-opacity="0.1" stroke="url(#paint0_linear_6658_39635)"/>
<path d="M24.9992 37.3356L24.9993 37.3355L24.9938 37.3284C24.7937 37.0695 24.5169 36.8717 24.2524 36.7395C23.9892 36.6079 23.6632 36.5037 23.3337 36.5037H21.3337C18.0649 36.5037 15.417 33.8632 15.417 30.6137V29.2803V21.307C15.417 18.0575 18.0649 15.417 21.3337 15.417H34.667C37.9357 15.417 40.5837 18.0575 40.5837 21.307V30.6137C40.5837 33.8632 37.9357 36.5037 34.667 36.5037H32.667C32.0157 36.5037 31.3962 36.8161 31.0032 37.3332L31.0014 37.3356L29.0014 39.9889L29.0003 39.9903C28.6812 40.4159 28.3116 40.5703 28.0003 40.5703C27.689 40.5703 27.3195 40.4159 27.0003 39.9903L26.9992 39.9889L24.9992 37.3356ZM20.5837 26.667C20.5837 27.8096 21.5012 28.7503 22.667 28.7503C23.8328 28.7503 24.7503 27.8096 24.7503 26.667C24.7503 25.5194 23.8145 24.5837 22.667 24.5837C21.5194 24.5837 20.5837 25.5194 20.5837 26.667ZM25.917 26.667C25.917 27.8096 26.8346 28.7503 28.0003 28.7503C29.1661 28.7503 30.0837 27.8096 30.0837 26.667C30.0837 25.5194 29.1479 24.5837 28.0003 24.5837C26.8528 24.5837 25.917 25.5194 25.917 26.667ZM31.2503 26.667C31.2503 27.8096 32.1679 28.7503 33.3337 28.7503C34.4994 28.7503 35.417 27.8096 35.417 26.667C35.417 25.5194 34.4812 24.5837 33.3337 24.5837C32.1861 24.5837 31.2503 25.5194 31.2503 26.667Z" fill="url(#paint1_linear_6658_39635)" stroke="url(#paint2_linear_6658_39635)" stroke-width="1.5"/>
<defs>
<linearGradient id="paint0_linear_6658_39635" x1="22.6154" y1="6" x2="18.4701" y2="49.1535" gradientUnits="userSpaceOnUse">
<stop stop-color="#1288FC"/>
<stop offset="1" stop-color="#0B5297"/>
</linearGradient>
<linearGradient id="paint1_linear_6658_39635" x1="25.4362" y1="17.5227" x2="23.4642" y2="38.0619" gradientUnits="userSpaceOnUse">
<stop stop-color="#1288FC"/>
<stop offset="1" stop-color="#0B5297"/>
</linearGradient>
<linearGradient id="paint2_linear_6658_39635" x1="25.4362" y1="17.5227" x2="23.4642" y2="38.0619" gradientUnits="userSpaceOnUse">
<stop stop-color="#1288FC"/>
<stop offset="1" stop-color="#0B5297"/>
</linearGradient>
</defs>
</svg>
