<svg width="56" height="56" viewBox="0 0 56 56" fill="none" xmlns="http://www.w3.org/2000/svg">
<circle cx="28" cy="28" r="27.5" fill="#303030" fill-opacity="0.1" stroke="url(#paint0_linear_3913_66799)"/>
<path d="M19.2837 28.6131L19.2838 28.6131L19.2882 28.6056C19.4934 28.255 19.6679 27.7868 19.7907 27.3408C19.9133 26.8955 20.0043 26.4001 20.0043 25.9867V23.5067C20.0043 19.0832 23.5998 15.4962 28.0286 15.4834C32.4399 15.484 36.0376 19.0805 36.0376 23.5067V26.0001C36.0376 26.4137 36.1286 26.9096 36.2536 27.3569C36.3782 27.8029 36.557 28.274 36.7725 28.6282C36.773 28.629 36.7734 28.6298 36.7739 28.6305L38.2762 31.1299C38.2765 31.1305 38.2769 31.1311 38.2772 31.1317C38.7092 31.8597 38.7901 32.7146 38.4989 33.496C38.2041 34.2739 37.5862 34.8816 36.7754 35.1558C35.3712 35.6237 33.9313 35.9866 32.4819 36.2196L32.4743 36.2208L32.4668 36.2222C32.3143 36.2499 32.2007 36.27 32.093 36.2798L32.0652 36.2823L32.0376 36.2869C31.8211 36.323 31.6014 36.3476 31.3581 36.3747L31.3488 36.3757L31.3396 36.3769C31.0676 36.414 30.7795 36.4392 30.4693 36.4662L30.4693 36.4662L30.462 36.4669C29.6598 36.5445 28.8439 36.5834 28.0276 36.5834C27.1975 36.5834 26.3679 36.5445 25.552 36.4668L25.5442 36.466L25.5363 36.4654C25.1964 36.4403 24.8693 36.4025 24.5416 36.3521L24.5342 36.351L24.5267 36.35C24.3307 36.3238 24.1389 36.2983 23.9601 36.2728C23.8755 36.2578 23.794 36.2467 23.7281 36.2377L23.7223 36.2369C23.6463 36.2266 23.5894 36.2187 23.5351 36.2088L23.5351 36.2088L23.5275 36.2075C22.0793 35.9596 20.6636 35.6215 19.2648 35.1552L19.2648 35.1552L19.2594 35.1535C18.3987 34.8737 17.767 34.2595 17.491 33.5132L17.4898 33.5101C17.2204 32.7916 17.3054 31.9221 17.7789 31.1168C17.7794 31.1159 17.7799 31.115 17.7805 31.114L19.2837 28.6131ZM27.9876 27.0967C28.9618 27.0967 29.7509 26.3076 29.7509 25.3334V21.2001C29.7509 20.2259 28.9618 19.4367 27.9876 19.4367C27.0134 19.4367 26.2243 20.2259 26.2243 21.2001V25.3334C26.2243 26.3076 27.0134 27.0967 27.9876 27.0967Z" fill="url(#paint1_linear_3913_66799)" stroke="url(#paint2_linear_3913_66799)" stroke-width="1.5"/>
<path d="M25.6865 39.5998C25.6828 39.5963 25.679 39.5928 25.6753 39.5893C26.4466 39.6564 27.2351 39.697 28.0269 39.697C28.8062 39.697 29.582 39.6563 30.3406 39.5891C29.7465 40.2029 28.9159 40.5837 28.0002 40.5837C27.1435 40.5837 26.3005 40.2348 25.7133 39.6262L25.7002 39.6127L25.6865 39.5998Z" fill="url(#paint3_linear_3913_66799)" stroke="url(#paint4_linear_3913_66799)" stroke-width="1.5"/>
<defs>
<linearGradient id="paint0_linear_3913_66799" x1="22.6154" y1="6" x2="18.4701" y2="49.1535" gradientUnits="userSpaceOnUse">
<stop stop-color="#1288FC"/>
<stop offset="1" stop-color="#0B5297"/>
</linearGradient>
<linearGradient id="paint1_linear_3913_66799" x1="25.809" y1="17.1548" x2="24.1529" y2="34.5736" gradientUnits="userSpaceOnUse">
<stop stop-color="#1288FC"/>
<stop offset="1" stop-color="#0B5297"/>
</linearGradient>
<linearGradient id="paint2_linear_3913_66799" x1="25.809" y1="17.1548" x2="24.1529" y2="34.5736" gradientUnits="userSpaceOnUse">
<stop stop-color="#1288FC"/>
<stop offset="1" stop-color="#0B5297"/>
</linearGradient>
<linearGradient id="paint3_linear_3913_66799" x1="27.2825" y1="38.9527" x2="27.2121" y2="41.0242" gradientUnits="userSpaceOnUse">
<stop stop-color="#1288FC"/>
<stop offset="1" stop-color="#0B5297"/>
</linearGradient>
<linearGradient id="paint4_linear_3913_66799" x1="27.2825" y1="38.9527" x2="27.2121" y2="41.0242" gradientUnits="userSpaceOnUse">
<stop stop-color="#1288FC"/>
<stop offset="1" stop-color="#0B5297"/>
</linearGradient>
</defs>
</svg>
