<svg width="56" height="56" viewBox="0 0 56 56" fill="none" xmlns="http://www.w3.org/2000/svg">
<circle opacity="0.4" cx="28" cy="28" r="28" fill="#303030"/>
<path d="M18.0412 31.5467L18.0419 31.5454L19.1995 29.2435C19.1999 29.2428 19.2002 29.242 19.2006 29.2413C19.3621 28.9121 19.4553 28.4685 19.4553 27.9995C19.4553 27.5303 19.362 27.0864 19.2003 26.7572C19.2001 26.7567 19.1998 26.7561 19.1995 26.7556L18.0417 24.44C18.0416 24.4398 18.0416 24.4397 18.0415 24.4395C17.225 22.8133 16.6992 21.3285 16.5108 20.0992C16.3283 18.9086 16.4376 17.7767 17.1465 17.0761C17.6593 16.5644 18.4138 16.3745 19.2136 16.3745C20.5973 16.3745 22.4475 16.9444 24.5061 17.9737L24.5059 17.9736L24.2269 18.5329L24.5064 17.9739L18.0412 31.5467ZM18.0412 31.5467C17.2251 33.179 16.6993 34.6638 16.5108 35.8914C16.3283 37.0802 16.4377 38.2077 17.145 38.9082C17.8458 39.6157 18.977 39.7247 20.1682 39.5423C21.399 39.354 22.8871 38.8282 24.5198 38.0119L35.9317 32.3059C35.9319 32.3058 35.9321 32.3057 35.9323 32.3056C38.0785 31.2392 39.5586 29.7069 39.5586 27.9862C39.5586 26.2634 38.0619 24.7315 35.9188 23.6667M18.0412 31.5467L35.9183 23.6665M35.9183 23.6665L35.6403 24.2262L35.9192 23.6669L35.9188 23.6667M35.9183 23.6665C35.9185 23.6665 35.9186 23.6666 35.9188 23.6667M35.9183 23.6665L35.9188 23.6667M18.532 28.907L18.5321 28.9071L18.5374 28.8959C18.6688 28.6212 18.7086 28.2771 18.7086 27.9995C18.7086 27.722 18.6688 27.3778 18.5374 27.1032L18.5375 27.1032L18.532 27.0921L17.3723 24.7861C17.3723 24.786 17.3722 24.7859 17.3721 24.7857C16.0713 22.1906 15.6609 20.3434 15.6835 19.0471C15.7057 17.7715 16.1462 17.0121 16.613 16.5507L16.613 16.5507L16.6181 16.5456C17.0796 16.0788 17.839 15.6384 19.1128 15.6161C20.4073 15.5935 22.2511 16.0039 24.8396 17.3047L24.8407 17.3052L36.2541 23.0119L36.2551 23.0124C38.9936 24.3752 40.3086 26.1792 40.3086 27.9995C40.3086 29.8205 38.9928 31.6245 36.2674 32.9872L24.8541 38.6939C22.3194 39.9612 20.4973 40.3745 19.2136 40.3745C17.8786 40.3745 17.0932 39.9286 16.6155 39.4509C16.1467 38.9821 15.7093 38.2216 15.6885 36.9477C15.6674 35.6525 16.078 33.8084 17.3723 31.213C17.3725 31.2126 17.3727 31.2122 17.3729 31.2118L18.532 28.907Z" fill="#ECECEC" stroke="#ECECEC" stroke-width="1.25"/>
<path d="M26.4529 28.375H19.2529C19.0514 28.375 18.8779 28.2015 18.8779 28C18.8779 27.7985 19.0514 27.625 19.2529 27.625H26.4529C26.6544 27.625 26.8279 27.7985 26.8279 28C26.8279 28.2015 26.6544 28.375 26.4529 28.375Z" fill="#ECECEC" stroke="#ECECEC" stroke-width="1.25"/>
</svg>
