<svg width="32" height="32" viewBox="0 0 32 32" fill="none" xmlns="http://www.w3.org/2000/svg">
<path d="M13.9869 2.97357L7.33354 5.48024C5.80021 6.05357 4.54688 7.86691 4.54688 9.49357V19.4002C4.54688 20.9736 5.58687 23.0402 6.85354 23.9869L12.5869 28.2669C14.4669 29.6802 17.5602 29.6802 19.4402 28.2669L25.1735 23.9869C26.4402 23.0402 27.4802 20.9736 27.4802 19.4002V9.49357C27.4802 7.85357 26.2269 6.04024 24.6935 5.46691L18.0402 2.97357C16.9069 2.56024 15.0935 2.56024 13.9869 2.97357Z" stroke="#ECECEC" stroke-width="1.5" stroke-linecap="round" stroke-linejoin="round"/>
<path d="M16.0007 16.6668C17.4734 16.6668 18.6673 15.4729 18.6673 14.0002C18.6673 12.5274 17.4734 11.3335 16.0007 11.3335C14.5279 11.3335 13.334 12.5274 13.334 14.0002C13.334 15.4729 14.5279 16.6668 16.0007 16.6668Z" stroke="#ECECEC" stroke-width="1.5" stroke-miterlimit="10" stroke-linecap="round" stroke-linejoin="round"/>
<path d="M16 16.6665V20.6665" stroke="#ECECEC" stroke-width="1.5" stroke-miterlimit="10" stroke-linecap="round" stroke-linejoin="round"/>
</svg>
