<svg width="28" height="29" viewBox="0 0 28 29" fill="none" xmlns="http://www.w3.org/2000/svg">
<path d="M5.13888 18.6141L10.4239 23.8991C12.5939 26.0691 16.1172 26.0691 18.2989 23.8991L23.4205 18.7774C25.5905 16.6074 25.5905 13.0841 23.4205 10.9024L18.1239 5.6291C17.0155 4.52076 15.4872 3.92576 13.9239 4.00743L8.09055 4.28743C5.75722 4.39243 3.90222 6.24743 3.78555 8.5691L3.50555 14.4024C3.43555 15.9774 4.03055 17.5058 5.13888 18.6141Z" stroke="#ECECEC" stroke-width="1.5" stroke-linecap="round" stroke-linejoin="round"/>
<path d="M11.3571 14.764C12.9679 14.764 14.2738 13.4582 14.2738 11.8473C14.2738 10.2365 12.9679 8.93066 11.3571 8.93066C9.74627 8.93066 8.44043 10.2365 8.44043 11.8473C8.44043 13.4582 9.74627 14.764 11.3571 14.764Z" stroke="#ECECEC" stroke-width="1.5" stroke-linecap="round"/>
<path d="M15.4404 20.5973L20.1071 15.9307" stroke="#ECECEC" stroke-width="1.5" stroke-miterlimit="10" stroke-linecap="round" stroke-linejoin="round"/>
</svg>
