<svg width="24" height="25" viewBox="0 0 24 25" fill="none" xmlns="http://www.w3.org/2000/svg">
<path d="M20.9955 6.01735L20.9986 6.01764C21.0008 6.01785 21.0019 6.01817 21.0023 6.01828L21.0032 6.01864C21.0036 6.01885 21.0047 6.01953 21.0061 6.02102H21.006H21.0059H21.0057H21.0055H21.0053H21.0052H21.005H21.0048H21.0047H21.0045H21.0043H21.0042H21.004H21.0038H21.0037H21.0035H21.0033H21.0031H21.003H21.0028H21.0026H21.0025H21.0023H21.0021H21.002H21.0018H21.0016H21.0015H21.0013H21.0011H21.001H21.0008H21.0007H21.0005H21.0003H21.0002H21H20.9998H20.9997H20.9995H20.9993H20.9992H20.999H20.9988H20.9987H20.9985H20.9984H20.9982H20.998H20.9979H20.9977H20.9976H20.9974H20.9972H20.9971H20.9969H20.9967H20.9966H20.9964H20.9963H20.9961H20.9959H20.9958H20.9956H20.9955H20.9953H20.9951H20.995H20.9948H20.9947H20.9945H20.9944H20.9942H20.994H20.9939H20.9937H20.9936H20.9934H20.9932H20.9931H20.9929H20.9928H20.9926H20.9925H20.9923H20.9921H20.992H20.9918H20.9917H20.9915H20.9914H20.9912H20.9911H20.9909H20.9907H20.9906H20.9904H20.9903H20.9901H20.99H20.9898H20.9897H20.9895H20.9893H20.9892H20.989H20.9889H20.9887H20.9886H20.9884H20.9883H20.9881H20.988H20.9878H20.9877H20.9875H20.9874H20.9872H20.987H20.9869H20.9867H20.9866H20.9864H20.9863H20.9861H20.986H20.9858H20.9857H20.9855H20.9854H20.9852H20.9851H20.9849H20.9848H20.9846H20.9845H20.9843H20.9842H20.984H20.9839H20.9837H20.9836H20.9834H20.9833H20.9831H20.983H20.9828H20.9827H20.9825H20.9824H20.9822H20.9821H20.9819H20.9818H20.9816H20.9815H20.9813H20.9812H20.981H20.9809H20.9807H20.9806H20.9804H20.9803H20.9801H20.98H20.9798H20.9797H20.9795H20.9794H20.9792H20.9791H20.9789H20.9788H20.9786H20.9785H20.9783H20.9782H20.978H20.9779H20.9778H20.9776H20.9775H20.9773H20.9772H20.977H20.9769H20.9767H20.9766H20.9764H20.9763H20.9761H20.976H20.9758H20.9757H20.9755H20.9754H20.9752H20.9751H20.975H20.9748H20.9747H20.9745H20.9744H20.9742H20.9741H20.9739H20.9738H20.9736H20.9735H20.9733H20.9732H20.973H20.9729H20.9727H20.9726H20.9725H20.9723H20.9722H20.972H20.9719H20.9717H20.9716H20.9714H20.9713H20.9711H20.971H20.9708H20.9707H20.9705H20.9704H20.9703H20.9701H20.97H20.9698H20.9697H20.9695H20.9694H20.9692H20.9691H20.9689H20.9688H20.9686H20.9685H20.9684H20.9682H20.9681H20.9679H20.9678H20.9676H20.9675H20.9673H20.9672H20.967C20.1644 5.94098 19.3616 5.86844 18.5589 5.80475C19.3723 5.86627 20.1841 5.9367 20.9955 6.01735ZM15.4797 4.95403V5.60676C13.0498 5.48933 10.6212 5.46917 8.19689 5.58437L8.4032 5.57106L8.49977 4.98244L8.70967 3.70308C8.70968 3.70302 8.70969 3.70296 8.7097 3.70291C8.79466 3.18784 8.87156 2.81804 9.09325 2.54491C9.27337 2.32298 9.66071 2.04102 10.6797 2.04102H13.2997C14.3138 2.04102 14.705 2.33187 14.8892 2.56317C15.115 2.84682 15.1898 3.22341 15.2694 3.7117L15.2694 3.71171L15.2702 3.71616L15.4797 4.95403Z" fill="#D92D20" stroke="#D92D20" stroke-width="1.5"/>
<path d="M18.3197 8.54102C18.4519 8.54102 18.5844 8.59489 18.6832 8.69473C18.7763 8.79901 18.8289 8.93922 18.821 9.08798C18.821 9.08846 18.8209 9.08893 18.8209 9.08941L18.2014 19.3315C18.1433 20.1382 18.0775 20.7627 17.7417 21.2223C17.4528 21.6176 16.8269 22.051 15.2097 22.051H8.78975C7.17398 22.051 6.54763 21.6159 6.25821 21.2191C5.92181 20.7578 5.85618 20.1327 5.79811 19.3313L5.17853 9.07823C5.17851 9.07791 5.17849 9.0776 5.17848 9.07729C5.17087 8.93937 5.22295 8.79614 5.3217 8.68881C5.40057 8.60308 5.53567 8.54102 5.67975 8.54102H18.3197ZM10.3297 18.541H13.6597C14.484 18.541 15.1597 17.8652 15.1597 17.041C15.1597 16.2168 14.484 15.541 13.6597 15.541H10.3297C9.50554 15.541 8.82975 16.2168 8.82975 17.041C8.82975 17.8652 9.50554 18.541 10.3297 18.541ZM9.49975 14.541H14.4997C15.324 14.541 15.9997 13.8652 15.9997 13.041C15.9997 12.2168 15.324 11.541 14.4997 11.541H9.49975C8.67554 11.541 7.99975 12.2168 7.99975 13.041C7.99975 13.8652 8.67554 14.541 9.49975 14.541Z" fill="#D92D20" stroke="#D92D20" stroke-width="1.5"/>
</svg>
