<svg width="40" height="40" viewBox="0 0 40 40" fill="none" xmlns="http://www.w3.org/2000/svg">
<circle cx="20" cy="20" r="20" fill="#1C1C1C"/>
<path d="M29.6809 24.9601L26.5509 17.6501C25.4909 15.1701 23.5409 15.0701 22.2309 17.4301L20.3409 20.8401C19.3809 22.5701 17.5909 22.7201 16.3509 21.1701L16.1309 20.8901C14.8409 19.2701 13.0209 19.4701 12.0909 21.3201L10.3709 24.7701C9.1609 27.1701 10.9109 30.0001 13.5909 30.0001H26.3509C28.9509 30.0001 30.7009 27.3501 29.6809 24.9601Z" stroke="#ECECEC" stroke-width="1.5" stroke-linecap="round" stroke-linejoin="round"/>
<path d="M14.9707 16C16.6276 16 17.9707 14.6569 17.9707 13C17.9707 11.3431 16.6276 10 14.9707 10C13.3138 10 11.9707 11.3431 11.9707 13C11.9707 14.6569 13.3138 16 14.9707 16Z" stroke="#ECECEC" stroke-width="1.5" stroke-linecap="round" stroke-linejoin="round"/>
</svg>
