<svg width="32" height="32" viewBox="0 0 32 32" fill="none" xmlns="http://www.w3.org/2000/svg">
<path d="M16.0007 16C19.6825 16 22.6673 13.0152 22.6673 9.33329C22.6673 5.65139 19.6825 2.66663 16.0007 2.66663C12.3188 2.66663 9.33398 5.65139 9.33398 9.33329C9.33398 13.0152 12.3188 16 16.0007 16Z" stroke="#ECECEC" stroke-width="1.5" stroke-linecap="round" stroke-linejoin="round"/>
<path d="M4.54688 29.3333C4.54688 24.1733 9.6802 20 16.0002 20C17.2802 20 18.5202 20.1733 19.6802 20.4933" stroke="#ECECEC" stroke-width="1.5" stroke-linecap="round" stroke-linejoin="round"/>
<path d="M29.3327 24C29.3327 24.4266 29.2794 24.84 29.1727 25.24C29.0527 25.7733 28.8394 26.2933 28.5594 26.7466C27.6394 28.2933 25.946 29.3333 23.9993 29.3333C22.626 29.3333 21.386 28.8133 20.4527 27.9599C20.0527 27.6133 19.706 27.2 19.4393 26.7466C18.946 25.9466 18.666 25 18.666 24C18.666 22.56 19.2394 21.24 20.1727 20.28C21.146 19.28 22.506 18.6666 23.9993 18.6666C25.5727 18.6666 26.9994 19.3466 27.9594 20.44C28.8127 21.3866 29.3327 22.64 29.3327 24Z" stroke="#ECECEC" stroke-width="1.5" stroke-miterlimit="10" stroke-linecap="round" stroke-linejoin="round"/>
<path d="M25.3739 22.5867L22.5605 25.4" stroke="#ECECEC" stroke-width="1.5" stroke-miterlimit="10" stroke-linecap="round" stroke-linejoin="round"/>
<path d="M22.5879 22.6134L25.4146 25.4267" stroke="#ECECEC" stroke-width="1.5" stroke-miterlimit="10" stroke-linecap="round" stroke-linejoin="round"/>
</svg>
