<svg width="32" height="32" viewBox="0 0 32 32" fill="none" xmlns="http://www.w3.org/2000/svg">
<circle cx="16" cy="16" r="16" fill="url(#paint0_linear_6332_24560)" fill-opacity="0.1"/>
<path d="M8.86491 10.4995L8.86544 10.4992L14.7936 7.07026C15.5439 6.64227 16.4586 6.64448 17.1949 7.06949C17.1949 7.0695 17.1949 7.06952 17.1949 7.06953L23.1299 10.4966C23.1307 10.4971 23.1315 10.4975 23.1322 10.498C23.874 10.9349 24.3312 11.7206 24.3399 12.5836V19.42C24.3399 20.2836 23.8816 21.0752 23.1449 21.5005L23.1449 21.5005L17.2078 24.9288C17.2073 24.9291 17.2068 24.9294 17.2063 24.9297C16.456 25.3577 15.5412 25.3555 14.805 24.9305C14.8049 24.9305 14.8049 24.9305 14.8049 24.9305L8.8699 21.5034C8.86913 21.5029 8.86836 21.5025 8.86759 21.502C8.12569 21.065 7.66992 20.2703 7.66992 19.42V12.58C7.66992 11.7164 8.12829 10.9248 8.86491 10.4995ZM17.2403 21.4903L17.2542 21.4764L17.2674 21.4617C17.4121 21.301 17.5285 21.1194 17.6122 20.9185C17.6942 20.7217 17.7499 20.4938 17.7499 20.25C17.7499 20.0101 17.696 19.7855 17.6161 19.591C17.5243 19.3565 17.3971 19.1823 17.2674 19.0383L17.2542 19.0236L17.2403 19.0097C16.7506 18.52 15.9911 18.3594 15.3364 18.6355C15.1042 18.7272 14.9314 18.8537 14.7882 18.9825L14.7735 18.9957L14.7596 19.0097C14.4211 19.3482 14.2499 19.8025 14.2499 20.25C14.2499 20.4545 14.2811 20.6869 14.3776 20.9185L14.3875 20.9423L14.3991 20.9654C14.4819 21.1309 14.5875 21.3007 14.7325 21.4617L14.7589 21.4911L14.7882 21.5175C14.9323 21.6471 15.1064 21.7744 15.3409 21.8662C15.5355 21.946 15.76 22 15.9999 22C16.4614 22 16.9044 21.8262 17.2403 21.4903ZM15.9999 10.25C15.1757 10.25 14.4999 10.9258 14.4999 11.75V17C14.4999 17.8242 15.1757 18.5 15.9999 18.5C16.8241 18.5 17.4999 17.8242 17.4999 17V11.75C17.4999 10.9258 16.8241 10.25 15.9999 10.25Z" fill="url(#paint1_linear_6332_24560)" stroke="url(#paint2_linear_6332_24560)" stroke-width="1.5"/>
<defs>
<linearGradient id="paint0_linear_6332_24560" x1="12.9231" y1="3.42857" x2="10.5543" y2="28.0877" gradientUnits="userSpaceOnUse">
<stop stop-color="#1288FC"/>
<stop offset="1" stop-color="#0B5297"/>
</linearGradient>
<linearGradient id="paint1_linear_6332_24560" x1="14.2578" y1="8.14286" x2="12.6314" y2="23.5251" gradientUnits="userSpaceOnUse">
<stop stop-color="#1288FC"/>
<stop offset="1" stop-color="#0B5297"/>
</linearGradient>
<linearGradient id="paint2_linear_6332_24560" x1="14.2578" y1="8.14286" x2="12.6314" y2="23.5251" gradientUnits="userSpaceOnUse">
<stop stop-color="#1288FC"/>
<stop offset="1" stop-color="#0B5297"/>
</linearGradient>
</defs>
</svg>
